<svg width="1440" height="4563" viewBox="0 0 1440 4563" fill="none" xmlns="http://www.w3.org/2000/svg">
    <g clip-path="url(#clip0_1_12)">
        <rect width="1440" height="4563" fill="#0B0B22" />
        <g clip-path="url(#clip1_1_12)">
            <path
                d="M410.243 833.667C527.782 804.072 598.572 686.75 568.356 571.623C538.141 456.495 418.362 387.157 300.823 416.753C183.284 446.348 112.494 563.67 142.71 678.797C172.925 793.925 292.704 863.263 410.243 833.667Z"
                fill="#FCA016" />
            <path
                d="M628.806 587.72C724.3 563.675 781.814 468.358 757.265 374.823C732.717 281.288 635.402 224.955 539.908 249C444.414 273.045 386.9 368.362 411.449 461.897C435.997 555.432 533.311 611.765 628.806 587.72Z"
                fill="#16FCD2" />
            <path
                d="M948.243 1471.31C1065.78 1441.71 1136.57 1324.39 1106.36 1209.26C1076.14 1094.13 956.362 1024.8 838.823 1054.39C721.284 1083.99 650.494 1201.31 680.71 1316.44C710.925 1431.57 830.704 1500.9 948.243 1471.31Z"
                fill="#FC165B" />
            <path
                d="M1166.81 1225.37C1262.3 1201.33 1319.82 1106.01 1295.27 1012.47C1270.72 918.938 1173.41 862.605 1077.91 886.65C982.416 910.695 924.903 1006.01 949.452 1099.55C974 1193.08 1071.31 1249.42 1166.81 1225.37Z"
                fill="#6016FC" />
            <path
                d="M248.79 -51.8998C458.811 -104.782 585.299 -314.413 531.31 -520.125C477.32 -725.837 263.297 -849.73 53.2763 -796.848C-156.745 -743.966 -283.233 -534.335 -229.243 -328.623C-175.254 -122.911 38.7689 0.982105 248.79 -51.8998Z"
                fill="#FCA016" />
            <path
                d="M1112.96 4508.5C1230.5 4478.9 1301.29 4361.58 1271.07 4246.45C1240.86 4131.32 1121.08 4061.99 1003.54 4091.58C886.001 4121.18 815.211 4238.5 845.427 4353.63C875.642 4468.76 995.421 4538.09 1112.96 4508.5Z"
                fill="#16FCD2" />
            <path
                d="M385.806 4392.26C481.3 4368.22 538.814 4272.9 514.265 4179.36C489.717 4085.83 392.402 4029.49 296.908 4053.54C201.414 4077.58 143.9 4172.9 168.449 4266.44C192.997 4359.97 290.311 4416.3 385.806 4392.26Z"
                fill="#6016FC" />
            <path
                d="M354.704 2586.38C518.921 2681.38 729.888 2629.35 825.911 2470.16C921.934 2310.98 866.651 2104.93 702.433 2009.92C538.216 1914.92 327.249 1966.95 231.226 2126.14C135.203 2285.32 190.486 2491.37 354.704 2586.38Z"
                fill="#0EA5E9" />
            <path
                d="M880.307 2545.55C1013.66 2622.7 1184.97 2580.45 1262.95 2451.19C1340.92 2321.92 1296.03 2154.6 1162.68 2077.45C1029.33 2000.31 858.012 2042.56 780.037 2171.82C702.063 2301.08 746.955 2468.41 880.307 2545.55Z"
                fill="#E11D48" />
            <path
                d="M20.4533 3497.8C164.351 3579.93 350.996 3531.87 437.335 3390.46C523.674 3249.05 477.013 3067.83 333.115 2985.71C189.217 2903.58 2.57277 2951.64 -83.7664 3093.05C-170.106 3234.46 -123.445 3415.67 20.4533 3497.8Z"
                fill="#F97316" />
            <path
                d="M1092.4 4000.07C1284.27 4109.57 1533.12 4045.49 1648.24 3856.95C1763.36 3668.4 1701.15 3426.78 1509.28 3317.27C1317.42 3207.77 1068.56 3271.85 953.441 3460.4C838.322 3648.95 900.537 3890.57 1092.4 4000.07Z"
                fill="#3B82F6" />
        </g>
    </g>
    <defs>
        <clipPath id="clip0_1_12">
            <rect width="1440" height="4563" fill="white" />
        </clipPath>
        <clipPath id="clip1_1_12">
            <rect width="1440" height="5463" fill="white" transform="translate(0 -900)" />
        </clipPath>
    </defs>
</svg>